<?xml version="1.0" encoding="UTF-8"?>
<svg width="410px" height="410px" viewBox="0 0 410 410" version="1.1" xmlns="http://www.w3.org/2000/svg" xmlns:xlink="http://www.w3.org/1999/xlink">
    <!-- Generator: Sketch 49.2 (51160) - http://www.bohemiancoding.com/sketch -->
    <title>instagram (2)</title>
    <desc>Created with Sketch.</desc>
    <defs></defs>
    <g id="Page-1" stroke="none" stroke-width="1" fill="none" fill-rule="evenodd">
        <g id="dribbble-(1)" transform="translate(-20.000000, -988.000000)" fill="#FFFFFF" fill-rule="nonzero">
            <g id="instagram-(2)" transform="translate(20.000000, 988.000000)">
                <path d="M307.2,0 L102.4,0 C46.085,0 0,46.065 0,102.4 L0,307.2 C0,363.515 46.085,409.6 102.4,409.6 L307.2,409.6 C363.515,409.6 409.6,363.515 409.6,307.2 L409.6,102.4 C409.6,46.065 363.515,0 307.2,0 Z M204.8,290.13 C157.665,290.13 119.465,251.914 119.465,204.8 C119.465,157.665 157.665,119.465 204.8,119.465 C251.914,119.465 290.135,157.665 290.135,204.8 C290.135,251.914 251.914,290.13 204.8,290.13 Z M315.735,119.465 C301.583,119.465 290.135,108.001 290.135,93.865 C290.135,79.729 301.583,68.265 315.735,68.265 C329.887,68.265 341.335,79.729 341.335,93.865 C341.335,108.001 329.887,119.465 315.735,119.465 Z" id="Shape"></path>
            </g>
        </g>
    </g>
</svg>