<?xml version="1.0" encoding="UTF-8"?>
<svg width="481px" height="480px" viewBox="0 0 481 480" version="1.1" xmlns="http://www.w3.org/2000/svg" xmlns:xlink="http://www.w3.org/1999/xlink">
    <!-- Generator: Sketch 49.2 (51160) - http://www.bohemiancoding.com/sketch -->
    <title>contract</title>
    <desc>Created with Sketch.</desc>
    <defs></defs>
    <g id="Page-1" stroke="none" stroke-width="1" fill="none" fill-rule="evenodd">
        <g id="dribbble-(1)" transform="translate(0.000000, -330.000000)" fill="#FFFFFF" fill-rule="nonzero">
            <g id="contract" transform="translate(0.000000, 330.000000)">
                <polygon id="Shape" points="352.022 0.007 352.022 128.007 480.022 128.007"></polygon>
                <path d="M159.574,460.135 L135.062,361.799 C150.358,347.239 160.022,326.759 160.022,304.007 C160.022,259.911 124.118,224.007 80.022,224.007 C35.926,224.007 0.022,259.911 0.022,304.007 C0.022,326.759 9.686,347.239 24.982,361.799 L0.47,460.135 C-1.034,466.183 1.142,472.583 6.006,476.519 C10.87,480.423 17.59,481.095 23.158,478.343 L80.022,449.895 L136.854,478.343 C139.126,479.431 141.59,480.007 144.022,480.007 C147.574,480.007 151.126,478.823 154.038,476.519 C158.902,472.583 161.078,466.215 159.574,460.135 Z M80.022,352.007 C53.558,352.007 32.022,330.471 32.022,304.007 C32.022,277.543 53.558,256.007 80.022,256.007 C106.486,256.007 128.022,277.543 128.022,304.007 C128.022,330.471 106.486,352.007 80.022,352.007 Z" id="Shape"></path>
                <path d="M352.022,160.007 C334.39,160.007 320.022,145.639 320.022,128.007 L320.022,0.007 L128.022,0.007 C110.39,0.007 96.022,14.375 96.022,32.007 L96.022,193.639 C150.166,201.479 192.022,247.719 192.022,304.007 C192.022,328.199 184.342,351.175 170.134,370.279 L189.526,448.007 L448.022,448.007 C465.686,448.007 480.022,433.671 480.022,416.007 L480.022,160.007 L352.022,160.007 Z M176.022,128.007 C167.19,128.007 160.022,120.839 160.022,112.007 C160.022,103.175 167.19,96.007 176.022,96.007 L272.022,96.007 C280.854,96.007 288.022,103.175 288.022,112.007 C288.022,120.839 280.854,128.007 272.022,128.007 L176.022,128.007 Z M400.022,320.007 L240.022,320.007 C231.19,320.007 224.022,312.839 224.022,304.007 C224.022,295.175 231.19,288.007 240.022,288.007 L400.022,288.007 C408.854,288.007 416.022,295.175 416.022,304.007 C416.022,312.839 408.854,320.007 400.022,320.007 Z M400.022,224.007 L208.022,224.007 C199.19,224.007 192.022,216.839 192.022,208.007 C192.022,199.175 199.19,192.007 208.022,192.007 L400.022,192.007 C408.854,192.007 416.022,199.175 416.022,208.007 C416.022,216.839 408.854,224.007 400.022,224.007 Z" id="Shape"></path>
            </g>
        </g>
    </g>
</svg>